<?xml version="1.0" standalone="no"?><svg xmlns="http://www.w3.org/2000/svg" viewBox="0 0 1440 320"><path fill="#0099ff" fill-opacity="1" d="M0,192L20,186.7C40,181,80,171,120,160C160,149,200,139,240,165.3C280,192,320,256,360,240C400,224,440,128,480,112C520,96,560,160,600,192C640,224,680,224,720,213.3C760,203,800,181,840,160C880,139,920,117,960,144C1000,171,1040,245,1080,266.7C1120,288,1160,256,1200,218.7C1240,181,1280,139,1320,101.3C1360,64,1400,32,1420,16L1440,0L1440,320L1420,320C1400,320,1360,320,1320,320C1280,320,1240,320,1200,320C1160,320,1120,320,1080,320C1040,320,1000,320,960,320C920,320,880,320,840,320C800,320,760,320,720,320C680,320,640,320,600,320C560,320,520,320,480,320C440,320,400,320,360,320C320,320,280,320,240,320C200,320,160,320,120,320C80,320,40,320,20,320L0,320Z"></path></svg>