<svg id="e8TpdwFJmts1" xmlns="http://www.w3.org/2000/svg"  viewBox="0 0 300 300" shape-rendering="geometricPrecision" text-rendering="geometricPrecision"><path d="" fill="none" stroke="#3f5787" stroke-width="0.6"/><path d="M76.34637,150c0-25.65086,14.98348-48.02791,37.20944-59.88957-3.94264,8.81607-6.1166,18.47031-6.1166,28.59065c0,41.60515,36.74152,75.33279,82.06449,75.33279c6.49026,0,12.80455-.69163,18.86017-1.99898-13.46777,16.34028-34.60173,26.86689-58.36386,26.86689-40.67778,0-73.65363-30.84838-73.65363-68.90178h-.00001Z" transform="translate(.000001 0)"  stroke-width="0"/><polygon points="0,-48.277985 41.809961,24.138991 -41.809961,24.138991 0,-48.277985" transform="matrix(.442512 0 0 0.406495 160.85653 134.881345)"  stroke-width="0"/><polygon points="0,-48.277985 41.809961,24.138991 -41.809961,24.138991 0,-48.277985" transform="matrix(-.442512 0 0-.406495 160.85653 134.881345)"  stroke-width="0"/></svg>