<?xml version="1.0" encoding="UTF-8"?>
<svg xmlns="http://www.w3.org/2000/svg" id="ed82XDA4m3P1" viewBox="0 0 640 480" shape-rendering="geometricPrecision"
     text-rendering="geometricPrecision">
    <ellipse rx="89.55651" ry="87.725322" transform="translate(320 240)" stroke-width="0" />
    <ellipse rx="21.459227" ry="34.90701" transform="translate(320 100.14306)"  stroke-width="0" />
    <ellipse rx="21.459227" ry="34.90701" transform="translate(320 379.799714)"  stroke-width="0" />
    <ellipse rx="21.459227" ry="34.90701" transform="matrix(0 1-1 0 466.323319 240)" stroke-width="0" />
    <ellipse rx="21.459227" ry="34.90701" transform="matrix(0 1-1 0 173.333333 240)"  stroke-width="0" />
    <ellipse rx="21.459227" ry="34.90701" transform="matrix(-.484746 0.874655-.874655-.484746 426.570488 341.956551)"  stroke-width="0" />
    <ellipse rx="21.459227" ry="34.90701" transform="matrix(.526264 0.850321-.850321 0.526264 218.078125 342.88364)" stroke-width="0" />
    <ellipse rx="21.459227" ry="34.90701" transform="matrix(-.452004 0.892016-.892016-.452004 208.240343 152.274678)"  stroke-width="0" />
    <ellipse rx="21.459227" ry="34.90701" transform="matrix(.49484 0.868984-.868984 0.49484 431.416309 148.910815)"  stroke-width="0" />
</svg>